HIERARCHY
ROOT mixamorig:Hips
{
	OFFSET -0.000008 104.274872 1.554316
	CHANNELS 6 Xposition Yposition Zposition Xrotation Yrotation Zrotation
	JOINT mixamorig:Spine
	{
		OFFSET -0.000005 10.181595 0.131519
		CHANNELS 6 Xposition Yposition Zposition Xrotation Yrotation Zrotation
		JOINT mixamorig:Spine1
		{
			OFFSET -0.000000 9.893959 -1.470707
			CHANNELS 6 Xposition Yposition Zposition Xrotation Yrotation Zrotation
			JOINT mixamorig:Spine2
			{
				OFFSET -0.000000 9.220757 -1.370641
				CHANNELS 6 Xposition Yposition Zposition Xrotation Yrotation Zrotation
				JOINT mixamorig:Neck
				{
					OFFSET 0.000001 16.740417 -2.049036
					CHANNELS 6 Xposition Yposition Zposition Xrotation Yrotation Zrotation
					JOINT mixamorig:Head
					{
						OFFSET 0.000000 9.617874 1.685006
						CHANNELS 6 Xposition Yposition Zposition Xrotation Yrotation Zrotation
						JOINT mixamorig:HeadTop_End
						{
							OFFSET 0.000002 22.037354 7.501101
							CHANNELS 6 Xposition Yposition Zposition Xrotation Yrotation Zrotation
							End Site
							{
								OFFSET 0.000168 2310.654297 -282.823242
							}
						}
					}
				}
				JOINT mixamorig:RightShoulder
				{
					OFFSET -4.569970 11.014908 -2.160885
					CHANNELS 6 Xposition Yposition Zposition Xrotation Yrotation Zrotation
					JOINT mixamorig:RightArm
					{
						OFFSET -10.592851 -0.524811 -2.232101
						CHANNELS 6 Xposition Yposition Zposition Xrotation Yrotation Zrotation
						JOINT mixamorig:RightForeArm
						{
							OFFSET -27.841511 0.000031 -0.000004
							CHANNELS 6 Xposition Yposition Zposition Xrotation Yrotation Zrotation
							JOINT mixamorig:RightHand
							{
								OFFSET -28.328831 -0.000015 0.000015
								CHANNELS 6 Xposition Yposition Zposition Xrotation Yrotation Zrotation
								JOINT mixamorig:RightHandThumb1
								{
									OFFSET -2.464806 -1.573990 2.681852
									CHANNELS 6 Xposition Yposition Zposition Xrotation Yrotation Zrotation
									JOINT mixamorig:RightHandThumb2
									{
										OFFSET -3.215179 -1.872803 1.924282
										CHANNELS 6 Xposition Yposition Zposition Xrotation Yrotation Zrotation
										JOINT mixamorig:RightHandThumb3
										{
											OFFSET -2.654831 -1.527969 1.512609
											CHANNELS 6 Xposition Yposition Zposition Xrotation Yrotation Zrotation
											JOINT mixamorig:RightHandThumb4
											{
												OFFSET -2.018814 -1.152008 1.108052
												CHANNELS 6 Xposition Yposition Zposition Xrotation Yrotation Zrotation
												End Site
												{
													OFFSET -188.809540 -114.533607 132.431396
												}
											}
										}
									}
								}
								JOINT mixamorig:RightHandIndex1
								{
									OFFSET -9.108284 -0.517868 2.259835
									CHANNELS 6 Xposition Yposition Zposition Xrotation Yrotation Zrotation
									JOINT mixamorig:RightHandIndex2
									{
										OFFSET -3.699989 0.000000 0.001215
										CHANNELS 6 Xposition Yposition Zposition Xrotation Yrotation Zrotation
										JOINT mixamorig:RightHandIndex3
										{
											OFFSET -2.850006 0.000031 -0.000522
											CHANNELS 6 Xposition Yposition Zposition Xrotation Yrotation Zrotation
											JOINT mixamorig:RightHandIndex4
											{
												OFFSET -2.772186 -0.000015 -0.000020
												CHANNELS 6 Xposition Yposition Zposition Xrotation Yrotation Zrotation
												End Site
												{
													OFFSET -277.218445 0.000000 -0.050231
												}
											}
										}
									}
								}
								JOINT mixamorig:RightHandMiddle1
								{
									OFFSET -9.532516 -0.000031 -0.000023
									CHANNELS 6 Xposition Yposition Zposition Xrotation Yrotation Zrotation
									JOINT mixamorig:RightHandMiddle2
									{
										OFFSET -3.700005 -0.000015 0.003713
										CHANNELS 6 Xposition Yposition Zposition Xrotation Yrotation Zrotation
										JOINT mixamorig:RightHandMiddle3
										{
											OFFSET -2.949974 0.000015 -0.002054
											CHANNELS 6 Xposition Yposition Zposition Xrotation Yrotation Zrotation
											JOINT mixamorig:RightHandMiddle4
											{
												OFFSET -2.946640 0.000000 -0.000156
												CHANNELS 6 Xposition Yposition Zposition Xrotation Yrotation Zrotation
												End Site
												{
													OFFSET -294.664337 0.000000 -0.113670
												}
											}
										}
									}
								}
								JOINT mixamorig:RightHandRing1
								{
									OFFSET -9.103600 -0.043076 -1.865134
									CHANNELS 6 Xposition Yposition Zposition Xrotation Yrotation Zrotation
									JOINT mixamorig:RightHandRing2
									{
										OFFSET -3.379288 0.000000 -0.001055
										CHANNELS 6 Xposition Yposition Zposition Xrotation Yrotation Zrotation
										JOINT mixamorig:RightHandRing3
										{
											OFFSET -2.889687 -0.000015 0.000379
											CHANNELS 6 Xposition Yposition Zposition Xrotation Yrotation Zrotation
											JOINT mixamorig:RightHandRing4
											{
												OFFSET -2.638809 -0.000015 0.000941
												CHANNELS 6 Xposition Yposition Zposition Xrotation Yrotation Zrotation
												End Site
												{
													OFFSET -263.880371 0.000000 0.516020
												}
											}
										}
									}
								}
								JOINT mixamorig:RightHandPinky1
								{
									OFFSET -8.076683 -0.486710 -3.806280
									CHANNELS 6 Xposition Yposition Zposition Xrotation Yrotation Zrotation
									JOINT mixamorig:RightHandPinky2
									{
										OFFSET -3.600014 -0.000015 -0.003747
										CHANNELS 6 Xposition Yposition Zposition Xrotation Yrotation Zrotation
										JOINT mixamorig:RightHandPinky3
										{
											OFFSET -2.099983 0.000000 -0.005739
											CHANNELS 6 Xposition Yposition Zposition Xrotation Yrotation Zrotation
											JOINT mixamorig:RightHandPinky4
											{
												OFFSET -2.115768 -0.000031 -0.003680
												CHANNELS 6 Xposition Yposition Zposition Xrotation Yrotation Zrotation
												End Site
												{
													OFFSET -211.577087 0.000000 -0.350686
												}
											}
										}
									}
								}
							}
						}
					}
				}
				JOINT mixamorig:LeftShoulder
				{
					OFFSET 4.570447 11.014725 -2.160855
					CHANNELS 6 Xposition Yposition Zposition Xrotation Yrotation Zrotation
					JOINT mixamorig:LeftArm
					{
						OFFSET 10.592371 -0.524597 -2.232119
						CHANNELS 6 Xposition Yposition Zposition Xrotation Yrotation Zrotation
						JOINT mixamorig:LeftForeArm
						{
							OFFSET 27.841532 -0.000031 0.000026
							CHANNELS 6 Xposition Yposition Zposition Xrotation Yrotation Zrotation
							JOINT mixamorig:LeftHand
							{
								OFFSET 28.328846 -0.000061 0.000022
								CHANNELS 6 Xposition Yposition Zposition Xrotation Yrotation Zrotation
								JOINT mixamorig:LeftHandThumb1
								{
									OFFSET 2.466141 -1.576172 2.681732
									CHANNELS 6 Xposition Yposition Zposition Xrotation Yrotation Zrotation
									JOINT mixamorig:LeftHandThumb2
									{
										OFFSET 3.217812 -1.872070 1.916482
										CHANNELS 6 Xposition Yposition Zposition Xrotation Yrotation Zrotation
										JOINT mixamorig:LeftHandThumb3
										{
											OFFSET 2.656029 -1.528778 1.514513
											CHANNELS 6 Xposition Yposition Zposition Xrotation Yrotation Zrotation
											JOINT mixamorig:LeftHandThumb4
											{
												OFFSET 2.020889 -1.154053 1.115139
												CHANNELS 6 Xposition Yposition Zposition Xrotation Yrotation Zrotation
												End Site
												{
													OFFSET 190.885437 -115.081749 130.048782
												}
											}
										}
									}
								}
								JOINT mixamorig:LeftHandIndex1
								{
									OFFSET 9.109314 -0.518021 2.259871
									CHANNELS 6 Xposition Yposition Zposition Xrotation Yrotation Zrotation
									JOINT mixamorig:LeftHandIndex2
									{
										OFFSET 3.699989 0.000000 -0.000322
										CHANNELS 6 Xposition Yposition Zposition Xrotation Yrotation Zrotation
										JOINT mixamorig:LeftHandIndex3
										{
											OFFSET 2.850006 0.000000 0.000352
											CHANNELS 6 Xposition Yposition Zposition Xrotation Yrotation Zrotation
											JOINT mixamorig:LeftHandIndex4
											{
												OFFSET 2.774864 -0.000031 -0.000027
												CHANNELS 6 Xposition Yposition Zposition Xrotation Yrotation Zrotation
												End Site
												{
													OFFSET 277.486267 0.000000 -0.009857
												}
											}
										}
									}
								}
								JOINT mixamorig:LeftHandMiddle1
								{
									OFFSET 9.533394 0.000061 0.000044
									CHANNELS 6 Xposition Yposition Zposition Xrotation Yrotation Zrotation
									JOINT mixamorig:LeftHandMiddle2
									{
										OFFSET 3.699989 -0.000015 -0.000231
										CHANNELS 6 Xposition Yposition Zposition Xrotation Yrotation Zrotation
										JOINT mixamorig:LeftHandMiddle3
										{
											OFFSET 2.949997 -0.000015 -0.000059
											CHANNELS 6 Xposition Yposition Zposition Xrotation Yrotation Zrotation
											JOINT mixamorig:LeftHandMiddle4
											{
												OFFSET 2.952896 0.000031 0.000063
												CHANNELS 6 Xposition Yposition Zposition Xrotation Yrotation Zrotation
												End Site
												{
													OFFSET 295.289337 0.000000 0.022810
												}
											}
										}
									}
								}
								JOINT mixamorig:LeftHandRing1
								{
									OFFSET 9.104523 -0.042999 -1.865074
									CHANNELS 6 Xposition Yposition Zposition Xrotation Yrotation Zrotation
									JOINT mixamorig:LeftHandRing2
									{
										OFFSET 3.150009 -0.000031 0.000043
										CHANNELS 6 Xposition Yposition Zposition Xrotation Yrotation Zrotation
										JOINT mixamorig:LeftHandRing3
										{
											OFFSET 2.949982 -0.000015 0.000040
											CHANNELS 6 Xposition Yposition Zposition Xrotation Yrotation Zrotation
											JOINT mixamorig:LeftHandRing4
											{
												OFFSET 2.644348 0.000000 0.000057
												CHANNELS 6 Xposition Yposition Zposition Xrotation Yrotation Zrotation
												End Site
												{
													OFFSET 264.434631 0.000000 0.012105
												}
											}
										}
									}
								}
								JOINT mixamorig:LeftHandPinky1
								{
									OFFSET 8.077789 -0.486847 -3.806259
									CHANNELS 6 Xposition Yposition Zposition Xrotation Yrotation Zrotation
									JOINT mixamorig:LeftHandPinky2
									{
										OFFSET 3.599953 0.000031 0.014727
										CHANNELS 6 Xposition Yposition Zposition Xrotation Yrotation Zrotation
										JOINT mixamorig:LeftHandPinky3
										{
											OFFSET 2.100021 0.000015 0.007705
											CHANNELS 6 Xposition Yposition Zposition Xrotation Yrotation Zrotation
											JOINT mixamorig:LeftHandPinky4
											{
												OFFSET 2.125504 0.000031 0.007517
												CHANNELS 6 Xposition Yposition Zposition Xrotation Yrotation Zrotation
												End Site
												{
													OFFSET 212.550781 0.000000 0.625752
												}
											}
										}
									}
								}
							}
						}
					}
				}
			}
		}
	}
	JOINT mixamorig:RightUpLeg
	{
		OFFSET -8.207787 -6.751648 -1.599560
		CHANNELS 6 Xposition Yposition Zposition Xrotation Yrotation Zrotation
		JOINT mixamorig:RightLeg
		{
			OFFSET -0.000002 -44.370117 0.345942
			CHANNELS 6 Xposition Yposition Zposition Xrotation Yrotation Zrotation
			JOINT mixamorig:RightFoot
			{
				OFFSET 0.000003 -44.423679 -3.043532
				CHANNELS 6 Xposition Yposition Zposition Xrotation Yrotation Zrotation
				JOINT mixamorig:RightToeBase
				{
					OFFSET -0.000002 -8.728671 10.710558
					CHANNELS 6 Xposition Yposition Zposition Xrotation Yrotation Zrotation
					JOINT mixamorig:RightToe_End
					{
						OFFSET -0.000001 -0.000679 9.278119
						CHANNELS 6 Xposition Yposition Zposition Xrotation Yrotation Zrotation
						End Site
						{
							OFFSET 0.000000 -0.067690 927.812134
						}
					}
				}
			}
		}
	}
	JOINT mixamorig:LeftUpLeg
	{
		OFFSET 8.207793 -6.751686 -1.599556
		CHANNELS 6 Xposition Yposition Zposition Xrotation Yrotation Zrotation
		JOINT mixamorig:LeftLeg
		{
			OFFSET -0.000004 -44.370014 0.346954
			CHANNELS 6 Xposition Yposition Zposition Xrotation Yrotation Zrotation
			JOINT mixamorig:LeftFoot
			{
				OFFSET -0.000001 -44.423672 -3.044401
				CHANNELS 6 Xposition Yposition Zposition Xrotation Yrotation Zrotation
				JOINT mixamorig:LeftToeBase
				{
					OFFSET -0.000002 -8.728669 10.710558
					CHANNELS 6 Xposition Yposition Zposition Xrotation Yrotation Zrotation
					JOINT mixamorig:LeftToe_End
					{
						OFFSET -0.000003 -0.000679 9.278133
						CHANNELS 6 Xposition Yposition Zposition Xrotation Yrotation Zrotation
						End Site
						{
							OFFSET 0.000000 -0.068021 927.813477
						}
					}
				}
			}
		}
	}
}
MOTION
Frames: 3
Frame Time: 0.033333
0.000006 104.270477 1.554256 0.000010 0.000003 -0.000113 -0.000005 10.181587 0.131522 0.000001 -0.000003 0.000084 -0.000000 9.893967 -1.470711 0.000001 0.000000 -0.000000 -0.000000 9.220802 -1.370642 0.000000 -0.000000 -0.000000 0.000001 16.740433 -2.049030 0.000000 -0.000000 -0.000000 0.000000 9.617859 1.685014 0.000000 0.000000 0.000000 0.000002 22.037384 7.501101 0.000000 -0.000000 0.000000 -4.569968 11.014880 -2.160881 0.000008 0.000001 -0.000038 -10.592806 -0.524844 -2.231766 80.697886 57.431912 -49.915723 -27.841505 -0.000012 0.000577 -26.847995 105.075712 34.600898 -28.328838 0.000008 0.000019 -0.000322 -0.000045 0.000005 -2.464503 -1.573656 2.682258 -55.363693 -183.054944 -39.769159 -3.215292 -1.872634 1.924689 156.540860 28.505755 -14.989344 -2.654954 -1.527897 1.513091 147.701926 26.726342 -37.694066 -2.018833 -1.151984 1.108055 -0.000004 0.000003 0.000002 -9.108392 -0.517562 2.260125 102.924872 17.004618 -21.318380 -3.700053 0.000329 0.001511 99.893477 11.148485 -13.216678 -2.850077 0.000373 -0.000270 97.575680 7.549588 -8.615334 -2.772176 -0.000017 -0.000021 0.000001 -0.000000 -0.000001 -9.532598 0.000273 0.000250 98.649044 14.131532 -16.576360 -3.700050 0.000358 0.003951 95.782297 6.073059 -6.620674 -2.950035 0.000338 -0.001836 93.570655 6.020927 -6.400528 -2.946640 0.000013 -0.000150 -0.000001 -0.000004 0.000000 -9.103695 -0.042745 -1.864866 97.455837 14.326530 -16.249005 -3.379298 0.000354 -0.000776 98.660676 4.664995 -5.447182 -2.889726 0.000375 0.000654 102.697994 3.580582 -4.530599 -2.638816 -0.000023 0.000939 0.000001 0.000001 -0.000000 -8.076750 -0.486377 -3.805995 94.733911 16.290368 -17.511968 -3.600032 0.000297 -0.003494 95.631603 6.289494 -6.558358 -2.099988 0.000306 -0.005468 99.301839 4.181928 -4.668980 -2.115773 -0.000029 -0.003691 -0.000001 -0.000002 -0.000001 4.570446 11.014691 -2.160851 -0.000018 0.000010 -0.000021 10.592524 -0.524545 -2.232377 60.994163 -70.102323 44.899956 27.841732 -0.000080 -0.000097 239.259997 -73.353718 254.738708 28.328838 -0.000013 0.000017 0.000020 -0.000087 0.000000 2.466125 -1.576180 2.681842 113.829358 133.138227 -156.019921 3.217792 -1.872040 1.916512 244.189426 51.674834 61.595267 2.655945 -1.528826 1.514606 189.670638 45.743501 -247.823223 2.020887 -1.154070 1.115149 0.000003 0.000003 0.000004 9.109456 -0.517878 2.259880 168.131650 -9.948317 79.776767 3.700047 0.000190 -0.000467 95.723899 -13.099707 14.483145 2.850025 0.000109 0.000233 46.851853 -1.468039 0.635603 2.774899 -0.000033 -0.000029 -0.000001 0.000003 0.000001 9.533531 0.000215 0.000054 163.294756 -11.847118 70.440048 3.700035 0.000159 -0.000404 75.005190 -6.479728 4.972804 2.950002 0.000095 -0.000202 52.315281 0.129316 -0.062305 2.952863 -0.000032 0.000072 0.000001 0.000001 -0.000002 9.104672 -0.042871 -1.865058 166.247269 -12.535935 84.666656 3.149992 0.000165 -0.000105 71.859109 -0.595350 0.432557 2.949964 0.000102 -0.000106 47.033362 7.409033 -3.227228 2.644327 0.000054 0.000059 -0.000001 0.000000 -0.000004 8.077568 -0.486531 -3.806148 194.802610 -9.059434 -63.713056 3.599867 0.000461 0.014851 195.025765 -3.660921 -29.449167 2.099986 0.000411 0.007827 196.900789 -0.094880 -3.286068 2.125518 -0.000029 0.007512 0.000001 -0.000003 0.000000 -8.207786 -6.751667 -1.599560 -0.077001 -0.000003 0.000080 -0.000002 -44.370110 0.345938 0.153719 -0.000000 -0.000000 0.000000 -44.423679 -3.043532 -0.076700 0.000000 -0.000002 -0.000006 -8.728667 10.710559 -0.000009 -0.000000 -0.000000 -0.000001 -0.000679 9.278123 0.000000 -0.000000 -0.000000 8.207792 -6.751710 -1.599556 -0.074518 -0.000003 0.000081 -0.000002 -44.370014 0.346960 0.148822 0.000002 0.000000 -0.000001 -44.423664 -3.044403 -0.074314 0.000000 -0.000002 -0.000004 -8.728671 10.710558 0.000007 -0.000000 -0.000000 0.000000 -0.000680 9.278137 -0.000000 0.000000 -0.000001 
0.000006 104.270477 1.554256 0.000010 0.000003 -0.000113 -0.000005 10.181587 0.131522 0.000001 -0.000003 0.000084 -0.000000 9.893967 -1.470711 0.000001 0.000000 -0.000000 -0.000000 9.220802 -1.370642 0.000000 -0.000000 -0.000000 0.000001 16.740433 -2.049030 0.000000 -0.000000 -0.000000 0.000000 9.617859 1.685014 0.000000 0.000000 0.000000 0.000002 22.037384 7.501101 0.000000 -0.000000 0.000000 -4.569968 11.014880 -2.160881 0.000008 0.000001 -0.000038 -10.592804 -0.524854 -2.231760 80.573228 58.274703 -50.583896 -27.841492 0.000016 0.000581 -27.761896 105.218893 35.835376 -28.328838 0.000022 0.000024 -0.000320 -0.000046 0.000014 -2.464492 -1.573637 2.682273 -55.618907 -183.010534 -40.780689 -3.215276 -1.872644 1.924698 156.860745 28.383561 -15.625864 -2.654955 -1.527886 1.513087 147.777003 26.596296 -38.810890 -2.018837 -1.152015 1.108047 -0.000004 0.000002 0.000003 -9.108395 -0.517543 2.260141 102.996323 16.896901 -21.211286 -3.700048 0.000320 0.001525 100.641335 10.887737 -13.078672 -2.850059 0.000389 -0.000256 98.223673 7.234991 -8.351080 -2.772164 0.000001 -0.000027 -0.000001 -0.000002 0.000000 -9.532591 0.000289 0.000253 99.159676 13.975308 -16.541859 -3.700046 0.000350 0.003969 96.446103 5.871140 -6.472499 -2.950042 0.000356 -0.001808 93.944246 5.837826 -6.246338 -2.946620 -0.000001 -0.000160 -0.000001 0.000000 -0.000002 -9.103680 -0.042720 -1.864866 97.915673 14.166655 -16.196679 -3.379311 0.000351 -0.000792 98.420034 4.755300 -5.528747 -2.889735 0.000363 0.000670 102.306070 3.665458 -4.604385 -2.638811 -0.000002 0.000929 0.000001 -0.000002 0.000001 -8.076739 -0.486367 -3.805998 95.401610 15.976016 -17.371157 -3.600027 0.000300 -0.003473 95.631220 6.292766 -6.561917 -2.100012 0.000328 -0.005445 99.490120 4.297255 -4.820222 -2.115765 -0.000043 -0.003690 0.000001 0.000003 -0.000005 4.570446 11.014691 -2.160851 -0.000018 0.000010 -0.000021 10.592522 -0.524568 -2.232379 61.694121 -70.415610 45.703538 27.841732 -0.000074 -0.000092 239.467716 -73.558200 254.765810 28.328831 -0.000013 0.000025 0.000019 -0.000088 0.000000 2.466143 -1.576157 2.681859 107.697521 134.672302 -152.424551 3.217804 -1.872028 1.916537 237.472727 49.486025 65.886955 2.655980 -1.528825 1.514605 190.031599 42.003553 -250.999862 2.020880 -1.154068 1.115149 0.000003 0.000007 0.000004 9.109450 -0.517931 2.259904 169.814909 -11.239271 95.560364 3.700117 0.000193 -0.000364 135.570253 -21.471697 49.849466 2.850099 0.000189 0.000243 102.435489 -23.932103 29.550311 2.774887 -0.000016 -0.000026 -0.000002 0.000003 -0.000000 9.533557 0.000265 0.000049 160.712084 -10.393688 56.264438 3.700049 0.000139 -0.000378 74.974652 -11.066436 8.496519 2.950024 0.000026 -0.000154 39.436812 -7.898104 2.835772 2.952877 -0.000030 0.000050 0.000000 0.000001 0.000001 9.104697 -0.042783 -1.865060 163.801665 -10.391135 65.167333 3.150001 0.000163 -0.000132 65.708728 3.210474 -2.072711 2.949994 0.000035 -0.000076 30.401613 5.441138 -1.479118 2.644331 0.000021 0.000062 0.000002 0.000005 0.000000 8.077558 -0.486538 -3.806153 190.727227 -7.125926 -68.196516 3.600058 0.000349 0.014831 190.064931 2.974322 27.294191 2.100108 0.000249 0.007805 192.577703 5.818608 45.139108 2.125525 -0.000016 0.007511 0.000003 0.000001 0.000000 -8.207786 -6.751667 -1.599560 -0.077001 -0.000003 0.000080 -0.000002 -44.370110 0.345938 0.153719 -0.000000 -0.000000 0.000000 -44.423679 -3.043532 -0.076700 0.000000 -0.000002 -0.000006 -8.728667 10.710559 -0.000009 -0.000000 -0.000000 -0.000001 -0.000679 9.278123 0.000000 -0.000000 -0.000000 8.207792 -6.751710 -1.599556 -0.074518 -0.000003 0.000081 -0.000002 -44.370014 0.346960 0.148822 0.000002 0.000000 -0.000001 -44.423664 -3.044403 -0.074314 0.000000 -0.000002 -0.000004 -8.728671 10.710558 0.000007 -0.000000 -0.000000 0.000000 -0.000680 9.278137 -0.000000 0.000000 -0.000001 
0.000006 104.270477 1.554256 0.000010 0.000003 -0.000113 -0.000005 10.181587 0.131522 0.000001 -0.000003 0.000084 -0.000000 9.893967 -1.470711 0.000001 0.000000 -0.000000 -0.000000 9.220802 -1.370642 0.000000 -0.000000 -0.000000 0.000001 16.740433 -2.049030 0.000000 -0.000000 -0.000000 0.000000 9.617859 1.685014 0.000000 0.000000 0.000000 0.000002 22.037384 7.501101 0.000000 -0.000000 0.000000 -4.569968 11.014880 -2.160881 0.000008 0.000001 -0.000038 -10.592793 -0.524843 -2.231755 81.217363 61.744289 -54.275504 -27.841503 0.000017 0.000570 -27.581470 103.182432 34.403509 -28.328842 0.000002 0.000018 -0.000323 -0.000044 0.000006 -2.464497 -1.573655 2.682249 -55.429960 -182.065099 -39.155446 -3.215282 -1.872634 1.924682 157.792724 28.090958 -17.045027 -2.654930 -1.527886 1.513089 148.275812 26.346058 -40.143405 -2.018842 -1.151996 1.108064 -0.000005 0.000001 0.000005 -9.108381 -0.517557 2.260140 103.817086 17.074693 -21.742560 -3.700072 0.000322 0.001516 100.816399 10.957652 -13.203190 -2.850071 0.000389 -0.000264 98.388581 7.096847 -8.215513 -2.772179 -0.000000 -0.000020 0.000001 -0.000003 0.000000 -9.532585 0.000273 0.000259 99.624251 13.821855 -16.495651 -3.700034 0.000350 0.003973 96.281427 5.504294 -6.045153 -2.950014 0.000368 -0.001799 93.547213 5.504009 -5.848193 -2.946627 0.000001 -0.000145 -0.000001 0.000002 -0.000002 -9.103691 -0.042737 -1.864869 98.337519 13.691591 -15.769162 -3.379289 0.000347 -0.000805 98.235086 3.615027 -4.193862 -2.889734 0.000371 0.000668 101.679592 2.772482 -3.456514 -2.638822 -0.000019 0.000930 0.000001 -0.000000 -0.000001 -8.076740 -0.486375 -3.805996 96.024578 15.432223 -16.958274 -3.600013 0.000287 -0.003499 96.527348 5.033660 -5.262038 -2.100013 0.000327 -0.005449 100.209086 3.135502 -3.497379 -2.115760 -0.000056 -0.003689 -0.000000 -0.000001 -0.000000 4.570446 11.014691 -2.160851 -0.000018 0.000010 -0.000021 10.592524 -0.524562 -2.232375 64.543607 -71.867305 49.185794 27.841745 -0.000057 -0.000099 230.861760 -73.648209 244.835289 28.328831 -0.000014 0.000019 0.000017 -0.000088 -0.000000 2.466139 -1.576179 2.681866 107.615976 133.362626 -152.133243 3.217761 -1.872035 1.916526 229.899414 55.483402 75.910340 2.655936 -1.528818 1.514607 187.035032 47.749832 -243.201972 2.020884 -1.154053 1.115144 0.000004 0.000008 0.000002 9.109140 -0.518002 2.259951 181.312057 -12.243176 192.105300 3.700117 0.000110 -0.000335 145.200628 -28.084259 77.237555 2.850099 0.000138 0.000258 95.711892 -32.169706 35.345146 2.774876 -0.000032 -0.000029 0.000001 -0.000002 0.000001 9.533165 0.000086 0.000123 181.702798 -8.281851 203.123447 3.700116 0.000181 -0.000280 132.075067 -22.236383 47.701249 2.950055 0.000081 -0.000177 71.557413 -27.335886 19.882824 2.952876 -0.000012 0.000063 0.000002 0.000001 -0.000001 9.104261 -0.042793 -1.864989 186.234110 -7.322588 -99.200622 3.150078 0.000333 0.000001 145.422678 -6.356468 20.236315 2.950000 0.000119 -0.000102 66.773425 -7.205462 4.753378 2.644335 0.000014 0.000063 0.000002 0.000002 -0.000001 8.077697 -0.486453 -3.806139 193.700272 -2.598199 -24.322573 3.599911 -0.000019 0.014790 182.334113 6.992710 134.564931 2.100065 0.000075 0.007784 191.427608 12.965967 93.490557 2.125489 0.000001 0.007519 0.000005 -0.000000 -0.000000 -8.207786 -6.751667 -1.599560 -0.077001 -0.000003 0.000080 -0.000002 -44.370110 0.345938 0.153719 -0.000000 -0.000000 0.000000 -44.423679 -3.043532 -0.076700 0.000000 -0.000002 -0.000006 -8.728667 10.710559 -0.000009 -0.000000 -0.000000 -0.000001 -0.000679 9.278123 0.000000 -0.000000 -0.000000 8.207792 -6.751710 -1.599556 -0.074518 -0.000003 0.000081 -0.000002 -44.370014 0.346960 0.148822 0.000002 0.000000 -0.000001 -44.423664 -3.044403 -0.074314 0.000000 -0.000002 -0.000004 -8.728671 10.710558 0.000007 -0.000000 -0.000000 0.000000 -0.000680 9.278137 -0.000000 0.000000 -0.000001 
